<svg width="428" height="218" viewBox="0 0 428 218" fill="none" xmlns="http://www.w3.org/2000/svg">
<path d="M107.983 22.5848L245.215 16.4808L199.471 59.2088L195.024 63.4816M148.645 182.51L141.02 115.366L190.577 67.7544M148.645 182.51L308.749 178.847M148.645 182.51L29.2015 145.886M308.749 178.847L273.17 133.678L316.373 67.7544M308.749 178.847L412.944 136.119M308.749 178.847L141.02 182.51L265.546 126.818M316.373 67.7544L415.485 133.678L265.546 126.818M316.373 67.7544H298.584L195.024 63.4816M316.373 67.7544L265.546 16.4808M29.2015 76.3L199.471 71.4168L255.381 126.353L265.546 126.818M29.2015 76.3L97.8177 27.468M29.2015 76.3V141.002M29.2015 141.002L128.314 126.353M29.2015 141.002L190.577 67.7544M190.577 67.7544L195.024 63.4816" stroke="black" stroke-linecap="round"/>
<rect x="86.9056" y="10.2664" width="40.7163" height="46.088" rx="0.5" fill="#D9D9D9" stroke="black"/>
<ellipse cx="97.7829" cy="26.8892" rx="3.79239" ry="4.28073" fill="black"/>
<ellipse cx="116.745" cy="26.8892" rx="3.79239" ry="4.28073" fill="black"/>
<path d="M97.7825 39.7981C97.7825 39.7981 103.438 43.6139 107.42 43.5564C111.294 43.5005 116.744 39.7313 116.744 39.7313" stroke="black" stroke-width="2" stroke-linecap="round"/>
<rect x="0.5" y="61.5399" width="40.7163" height="46.088" rx="0.5" fill="#D9D9D9" stroke="black"/>
<ellipse cx="11.3771" cy="78.1628" rx="3.79239" ry="4.28073" fill="black"/>
<ellipse cx="30.339" cy="78.1628" rx="3.79239" ry="4.28073" fill="black"/>
<path d="M11.377 91.0718C19.4916 95.482 23.5803 95.1057 30.339 91.0051" stroke="black" stroke-width="2" stroke-linecap="round"/>
<rect x="10.6656" y="127.463" width="40.7163" height="46.088" rx="0.5" fill="#D9D9D9" stroke="black"/>
<ellipse cx="21.5426" cy="144.086" rx="3.79239" ry="4.28073" fill="black"/>
<ellipse cx="40.5048" cy="144.086" rx="3.79239" ry="4.28073" fill="black"/>
<path d="M21.5426 156.995C21.5426 156.995 23.9869 160.099 31.2873 160.099C38.5876 160.099 40.5046 156.928 40.5046 156.928" stroke="black" stroke-width="2" stroke-linecap="round"/>
<rect x="137.732" y="171.412" width="40.7163" height="46.088" rx="0.5" fill="#D9D9D9" stroke="black"/>
<ellipse cx="148.61" cy="188.035" rx="3.79239" ry="4.28073" fill="black"/>
<ellipse cx="167.572" cy="188.035" rx="3.79239" ry="4.28073" fill="black"/>
<path d="M148.609 200.944C156.013 205.333 160.167 205.072 167.571 200.877" stroke="black" stroke-width="2" stroke-linecap="round"/>
<rect x="117.401" y="107.93" width="40.7163" height="46.088" rx="0.5" fill="#D9D9D9" stroke="black"/>
<ellipse cx="128.278" cy="124.553" rx="3.79239" ry="4.28073" fill="black"/>
<ellipse cx="147.241" cy="124.553" rx="3.79239" ry="4.28073" fill="black"/>
<path d="M128.279 137.462C128.279 137.462 130.364 141.231 137.664 141.264C144.964 141.297 147.241 137.396 147.241 137.396" stroke="black" stroke-width="2" stroke-linecap="round"/>
<rect x="173.311" y="51.7736" width="40.7163" height="46.088" rx="0.5" fill="#D9D9D9" stroke="black"/>
<ellipse cx="184.188" cy="68.3966" rx="3.79239" ry="4.28073" fill="black"/>
<ellipse cx="203.15" cy="68.3966" rx="3.79239" ry="4.28073" fill="black"/>
<path d="M184.188 81.3056C191.594 85.5192 195.743 85.7593 203.15 81.2388" stroke="black" stroke-width="2" stroke-linecap="round"/>
<rect x="300.378" y="56.6569" width="40.7163" height="46.088" rx="0.5" fill="#D9D9D9" stroke="black"/>
<ellipse cx="311.255" cy="73.2797" rx="3.79239" ry="4.28073" fill="black"/>
<ellipse cx="330.217" cy="73.2797" rx="3.79239" ry="4.28073" fill="black"/>
<path d="M311.255 86.1885C319.376 91.5291 323.455 90.9538 330.217 86.1218" stroke="black" stroke-width="2" stroke-linecap="round"/>
<rect x="300.378" y="161.646" width="40.7163" height="46.088" rx="0.5" fill="#D9D9D9" stroke="black"/>
<ellipse cx="311.255" cy="178.268" rx="3.79239" ry="4.28073" fill="black"/>
<ellipse cx="330.217" cy="178.268" rx="3.79239" ry="4.28073" fill="black"/>
<path d="M311.255 191.178C311.255 191.178 316.564 194.205 321.216 194.238C325.867 194.271 330.217 191.111 330.217 191.111" stroke="black" stroke-width="2" stroke-linecap="round"/>
<rect x="386.784" y="115.255" width="40.7163" height="46.088" rx="0.5" fill="#D9D9D9" stroke="black"/>
<ellipse cx="397.661" cy="131.878" rx="3.79239" ry="4.28073" fill="black"/>
<ellipse cx="416.623" cy="131.878" rx="3.79239" ry="4.28073" fill="black"/>
<path d="M397.661 144.787C397.661 144.787 403.606 148.327 407.777 148.327C411.949 148.327 416.623 144.72 416.623 144.72" stroke="black" stroke-width="2" stroke-linecap="round"/>
<rect x="224.138" y="0.5" width="40.7163" height="46.088" rx="0.5" fill="#D9D9D9" stroke="black"/>
<ellipse cx="235.015" cy="17.1229" rx="3.79239" ry="4.28073" fill="black"/>
<ellipse cx="253.977" cy="17.1229" rx="3.79239" ry="4.28073" fill="black"/>
<path d="M235.015 30.0319C235.015 30.0319 240.907 34.347 245.084 34.1388C248.841 33.9515 253.977 29.9651 253.977 29.9651" stroke="black" stroke-width="2" stroke-linecap="round"/>
<rect x="244.469" y="112.814" width="40.7163" height="46.088" rx="0.5" fill="#D9D9D9" stroke="black"/>
<ellipse cx="255.346" cy="129.437" rx="3.79239" ry="4.28073" fill="black"/>
<ellipse cx="274.308" cy="129.437" rx="3.79239" ry="4.28073" fill="black"/>
<path d="M255.346 142.346C263.459 147.136 267.547 146.704 274.308 142.279" stroke="black" stroke-width="2" stroke-linecap="round"/>
</svg>
